<?xml version="1.0" encoding="UTF-8" standalone="no"?><!-- Generator: Gravit.io --><svg xmlns="http://www.w3.org/2000/svg" xmlns:xlink="http://www.w3.org/1999/xlink" style="isolation:isolate" viewBox="0 0 171.152 27.468" width="171.152pt" height="27.468pt"><defs><clipPath id="_clipPath_ZaZDUJWw2RfAKaqncRgdAWCm1GbboKdo"><rect width="171.152" height="27.468"/></clipPath></defs><g clip-path="url(#_clipPath_ZaZDUJWw2RfAKaqncRgdAWCm1GbboKdo)"><g><path d=" M 19.188 17.737 C 19.188 19.057 18.936 20.299 18.432 21.463 C 17.928 22.627 17.244 23.641 16.38 24.505 C 15.516 25.369 14.502 26.053 13.338 26.557 C 12.174 27.061 10.932 27.313 9.612 27.313 C 8.268 27.313 7.014 27.061 5.85 26.557 C 4.686 26.053 3.672 25.369 2.808 24.505 C 1.944 23.641 1.26 22.627 0.756 21.463 C 0.252 20.299 0 19.057 0 17.737 L 0 0.745 L 3.168 0.745 L 3.168 17.737 C 3.168 18.625 3.336 19.459 3.672 20.239 C 4.008 21.019 4.47 21.703 5.058 22.291 C 5.646 22.879 6.33 23.341 7.11 23.677 C 7.89 24.013 8.724 24.181 9.612 24.181 C 10.5 24.181 11.334 24.013 12.114 23.677 C 12.894 23.341 13.578 22.879 14.166 22.291 C 14.754 21.703 15.216 21.019 15.552 20.239 C 15.888 19.459 16.056 18.625 16.056 17.737 L 16.056 0.745 L 19.188 0.745 L 19.188 17.737 Z " fill="rgb(255,255,255)"/><path d=" M 22.572 0.673 L 25.632 0.673 L 25.632 22.345 C 25.632 22.897 25.89 23.365 26.406 23.749 C 26.922 24.133 27.54 24.325 28.26 24.325 L 28.26 27.385 C 27.468 27.385 26.73 27.253 26.046 26.989 C 25.362 26.725 24.762 26.365 24.246 25.909 C 23.73 25.453 23.322 24.919 23.022 24.307 C 22.722 23.695 22.572 23.041 22.572 22.345 L 22.572 0.673 Z " fill="rgb(255,255,255)"/><path d=" M 30.636 4.705 L 33.732 4.705 L 33.732 9.097 L 40.032 9.097 L 40.032 12.157 L 33.732 12.157 L 33.732 22.273 C 33.732 22.801 33.918 23.251 34.29 23.623 C 34.662 23.995 35.124 24.181 35.676 24.181 C 36.228 24.181 36.69 23.929 37.062 23.425 C 37.434 22.921 37.62 22.309 37.62 21.589 L 40.68 21.589 C 40.68 22.381 40.548 23.119 40.284 23.803 C 40.02 24.487 39.666 25.087 39.222 25.603 C 38.778 26.119 38.25 26.527 37.638 26.827 C 37.026 27.127 36.372 27.277 35.676 27.277 C 34.98 27.277 34.326 27.145 33.714 26.881 C 33.102 26.617 32.568 26.257 32.112 25.801 C 31.656 25.345 31.296 24.817 31.032 24.217 C 30.768 23.617 30.636 22.969 30.636 22.273 L 30.636 4.705 Z " fill="rgb(255,255,255)"/><path d=" M 46.368 27.025 L 43.272 27.025 L 43.272 18.025 C 43.272 16.729 43.536 15.505 44.064 14.353 C 44.592 13.201 45.312 12.205 46.224 11.365 C 47.136 10.525 48.198 9.859 49.41 9.367 C 50.622 8.875 51.924 8.629 53.316 8.629 L 53.316 11.725 C 52.356 11.725 51.456 11.887 50.616 12.211 C 49.776 12.535 49.038 12.985 48.402 13.561 C 47.766 14.137 47.268 14.809 46.908 15.577 C 46.548 16.345 46.368 17.161 46.368 18.025 L 46.368 27.025 Z " fill="rgb(255,255,255)"/><path d=" M 65.484 8.593 C 66.78 8.593 68.004 8.839 69.156 9.331 C 70.308 9.823 71.31 10.495 72.162 11.347 C 73.014 12.199 73.686 13.195 74.178 14.335 C 74.67 15.475 74.916 16.693 74.916 17.989 L 74.916 26.989 L 71.784 26.989 L 71.784 24.973 C 70.944 25.717 69.99 26.299 68.922 26.719 C 67.854 27.139 66.708 27.349 65.484 27.349 C 64.188 27.349 62.976 27.103 61.848 26.611 C 60.72 26.119 59.73 25.453 58.878 24.613 C 58.026 23.773 57.354 22.783 56.862 21.643 C 56.37 20.503 56.124 19.285 56.124 17.989 C 56.124 16.693 56.37 15.475 56.862 14.335 C 57.354 13.195 58.026 12.199 58.878 11.347 C 59.73 10.495 60.72 9.823 61.848 9.331 C 62.976 8.839 64.188 8.593 65.484 8.593 Z  M 65.484 11.689 C 64.62 11.689 63.804 11.851 63.036 12.175 C 62.268 12.499 61.602 12.949 61.038 13.525 C 60.474 14.101 60.024 14.773 59.688 15.541 C 59.352 16.309 59.184 17.125 59.184 17.989 C 59.184 18.853 59.352 19.669 59.688 20.437 C 60.024 21.205 60.474 21.871 61.038 22.435 C 61.602 22.999 62.268 23.449 63.036 23.785 C 63.804 24.121 64.62 24.289 65.484 24.289 C 66.372 24.289 67.2 24.121 67.968 23.785 C 68.736 23.449 69.402 22.999 69.966 22.435 C 70.53 21.871 70.974 21.205 71.298 20.437 C 71.622 19.669 71.784 18.853 71.784 17.989 C 71.784 17.125 71.622 16.309 71.298 15.541 C 70.974 14.773 70.53 14.101 69.966 13.525 C 69.402 12.949 68.736 12.499 67.968 12.175 C 67.2 11.851 66.372 11.689 65.484 11.689 Z " fill="rgb(255,255,255)"/></g><g><path d=" M 79.496 0 L 81.368 0 L 81.368 18 L 90.368 9 L 93.032 9 L 84.032 18 L 93.032 27 L 90.368 27 L 81.368 18 L 81.368 27 L 79.496 27 L 79.496 0 Z " fill="rgb(247,6,6)"/><path d=" M 105.56 8.532 C 106.856 8.532 108.08 8.778 109.232 9.27 C 110.384 9.762 111.386 10.434 112.238 11.286 C 113.09 12.138 113.762 13.14 114.254 14.292 C 114.746 15.444 114.992 16.668 114.992 17.964 L 114.992 26.964 L 113.084 26.964 L 113.084 23.616 C 112.244 24.768 111.17 25.68 109.862 26.352 C 108.554 27.024 107.12 27.36 105.56 27.36 C 104.264 27.36 103.046 27.114 101.906 26.622 C 100.766 26.13 99.77 25.458 98.918 24.606 C 98.066 23.754 97.394 22.758 96.902 21.618 C 96.41 20.478 96.164 19.26 96.164 17.964 C 96.164 16.668 96.41 15.444 96.902 14.292 C 97.394 13.14 98.066 12.138 98.918 11.286 C 99.77 10.434 100.766 9.762 101.906 9.27 C 103.046 8.778 104.264 8.532 105.56 8.532 Z  M 105.56 10.44 C 104.528 10.44 103.556 10.638 102.644 11.034 C 101.732 11.43 100.934 11.964 100.25 12.636 C 99.566 13.308 99.026 14.106 98.63 15.03 C 98.234 15.954 98.036 16.932 98.036 17.964 C 98.036 18.996 98.234 19.968 98.63 20.88 C 99.026 21.792 99.566 22.59 100.25 23.274 C 100.934 23.958 101.732 24.498 102.644 24.894 C 103.556 25.29 104.528 25.488 105.56 25.488 C 106.592 25.488 107.57 25.29 108.494 24.894 C 109.418 24.498 110.216 23.958 110.888 23.274 C 111.56 22.59 112.094 21.792 112.49 20.88 C 112.886 19.968 113.084 18.996 113.084 17.964 C 113.084 16.932 112.886 15.954 112.49 15.03 C 112.094 14.106 111.56 13.308 110.888 12.636 C 110.216 11.964 109.418 11.43 108.494 11.034 C 107.57 10.638 106.592 10.44 105.56 10.44 Z " fill="rgb(247,6,6)"/><path d=" M 119.924 27 L 118.052 27 L 118.052 18 C 118.052 16.704 118.298 15.48 118.79 14.328 C 119.282 13.176 119.954 12.174 120.806 11.322 C 121.658 10.47 122.654 9.798 123.794 9.306 C 124.934 8.814 126.152 8.568 127.448 8.568 L 127.448 10.476 C 126.416 10.476 125.444 10.674 124.532 11.07 C 123.62 11.466 122.822 12 122.138 12.672 C 121.454 13.344 120.914 14.142 120.518 15.066 C 120.122 15.99 119.924 16.968 119.924 18 L 119.924 27 Z " fill="rgb(247,6,6)"/><path d=" M 139.904 8.568 C 141.2 8.568 142.418 8.814 143.558 9.306 C 144.698 9.798 145.694 10.47 146.546 11.322 C 147.398 12.174 148.07 13.176 148.562 14.328 C 149.054 15.48 149.3 16.704 149.3 18 L 149.3 27 L 147.428 27 L 147.428 18 C 147.428 16.968 147.23 15.99 146.834 15.066 C 146.438 14.142 145.904 13.344 145.232 12.672 C 144.56 12 143.762 11.466 142.838 11.07 C 141.914 10.674 140.936 10.476 139.904 10.476 C 138.872 10.476 137.9 10.674 136.988 11.07 C 136.076 11.466 135.278 12 134.594 12.672 C 133.91 13.344 133.37 14.142 132.974 15.066 C 132.578 15.99 132.38 16.968 132.38 18 L 132.38 27 L 130.508 27 L 130.508 18 C 130.508 16.704 130.754 15.48 131.246 14.328 C 131.738 13.176 132.41 12.174 133.262 11.322 C 134.114 10.47 135.11 9.798 136.25 9.306 C 137.39 8.814 138.608 8.568 139.904 8.568 Z " fill="rgb(247,6,6)"/><path d=" M 169.208 17.136 C 169.088 16.2 168.812 15.336 168.38 14.544 C 167.948 13.752 167.402 13.056 166.742 12.456 C 166.082 11.856 165.326 11.388 164.474 11.052 C 163.622 10.716 162.716 10.548 161.756 10.548 C 160.796 10.548 159.884 10.716 159.02 11.052 C 158.156 11.388 157.394 11.856 156.734 12.456 C 156.074 13.056 155.528 13.752 155.096 14.544 C 154.664 15.336 154.388 16.2 154.268 17.136 L 169.208 17.136 Z  M 161.756 27.468 C 160.46 27.468 159.236 27.222 158.084 26.73 C 156.932 26.238 155.93 25.566 155.078 24.714 C 154.226 23.862 153.554 22.866 153.062 21.726 C 152.57 20.586 152.324 19.368 152.324 18.072 C 152.324 16.776 152.57 15.552 153.062 14.4 C 153.554 13.248 154.226 12.246 155.078 11.394 C 155.93 10.542 156.932 9.87 158.084 9.378 C 159.236 8.886 160.46 8.64 161.756 8.64 C 163.052 8.64 164.27 8.886 165.41 9.378 C 166.55 9.87 167.546 10.542 168.398 11.394 C 169.25 12.246 169.922 13.248 170.414 14.4 C 170.906 15.552 171.152 16.776 171.152 18.072 C 171.152 18.24 171.152 18.396 171.152 18.54 C 171.152 18.684 171.14 18.84 171.116 19.008 L 170.684 19.008 L 154.268 19.008 C 154.388 19.944 154.664 20.808 155.096 21.6 C 155.528 22.392 156.074 23.088 156.734 23.688 C 157.394 24.288 158.156 24.756 159.02 25.092 C 159.884 25.428 160.796 25.596 161.756 25.596 C 162.452 25.596 163.112 25.464 163.736 25.2 C 164.36 24.936 164.912 24.564 165.392 24.084 L 166.724 25.416 C 166.1 26.04 165.362 26.538 164.51 26.91 C 163.658 27.282 162.74 27.468 161.756 27.468 Z " fill="rgb(247,6,6)"/></g></g></svg>