<?xml version="1.0" encoding="UTF-8" standalone="no"?> <!-- Created with Vectornator for iOS (http://vectornator.io/) --><!DOCTYPE svg PUBLIC "-//W3C//DTD SVG 1.1//EN" "http://www.w3.org/Graphics/SVG/1.1/DTD/svg11.dtd">
<svg height="100%" style="fill-rule:nonzero;clip-rule:evenodd;stroke-linecap:round;stroke-linejoin:round;" xmlns:xlink="http://www.w3.org/1999/xlink" xmlns="http://www.w3.org/2000/svg" xml:space="preserve" width="100%" xmlns:vectornator="http://vectornator.io" version="1.1" viewBox="0 0 197.847 39.7632">
<metadata>
<vectornator:setting key="DimensionsVisible" value="1"/>
<vectornator:setting key="PencilOnly" value="0"/>
<vectornator:setting key="SnapToPoints" value="0"/>
<vectornator:setting key="OutlineMode" value="0"/>
<vectornator:setting key="CMYKEnabledKey" value="0"/>
<vectornator:setting key="RulersVisible" value="1"/>
<vectornator:setting key="SnapToEdges" value="0"/>
<vectornator:setting key="GuidesVisible" value="1"/>
<vectornator:setting key="DisplayWhiteBackground" value="0"/>
<vectornator:setting key="doHistoryDisabled" value="0"/>
<vectornator:setting key="TimeLapseWatermarkDisabled" value="0"/>
<vectornator:setting key="SnapToGuides" value="1"/>
<vectornator:setting key="Units" value="Points"/>
<vectornator:setting key="IsolateActiveLayer" value="0"/>
<vectornator:setting key="SnapToGrid" value="0"/>
<vectornator:setting key="DynamicGuides" value="0"/>
</metadata>
<defs/>
<g id="Layer 1" vectornator:layerName="Layer 1">
<g opacity="1">
<path d="M92.9639+5.92421L94.8359+5.92421L94.8359+23.9243L103.836+14.9242L106.5+14.9242L97.4999+23.9243L106.5+32.9243L103.836+32.9243L94.8359+23.9243L94.8359+32.9243L92.9639+32.9243L92.9639+5.92421Z" fill-rule="evenodd" fill="#f70606" opacity="1"/>
<path d="M119.028+14.4562C120.324+14.4562+121.548+14.7022+122.7+15.1942C123.852+15.6862+124.854+16.3583+125.706+17.2103C126.558+18.0623+127.23+19.0643+127.722+20.2163C128.214+21.3683+128.46+22.5923+128.46+23.8883L128.46+32.8883L126.552+32.8883L126.552+29.5403C125.712+30.6923+124.638+31.6043+123.33+32.2763C122.022+32.9483+120.588+33.2843+119.028+33.2843C117.732+33.2843+116.514+33.0383+115.374+32.5463C114.234+32.0543+113.238+31.3823+112.386+30.5303C111.534+29.6783+110.862+28.6823+110.37+27.5423C109.878+26.4023+109.632+25.1843+109.632+23.8883C109.632+22.5923+109.878+21.3683+110.37+20.2163C110.862+19.0643+111.534+18.0623+112.386+17.2103C113.238+16.3583+114.234+15.6862+115.374+15.1942C116.514+14.7022+117.732+14.4562+119.028+14.4562ZM119.028+16.3643C117.996+16.3643+117.024+16.5623+116.112+16.9583C115.2+17.3543+114.402+17.8883+113.718+18.5603C113.034+19.2323+112.494+20.0303+112.098+20.9543C111.702+21.8783+111.504+22.8563+111.504+23.8883C111.504+24.9203+111.702+25.8923+112.098+26.8043C112.494+27.7163+113.034+28.5143+113.718+29.1983C114.402+29.8823+115.2+30.4223+116.112+30.8183C117.024+31.2143+117.996+31.4123+119.028+31.4123C120.06+31.4123+121.038+31.2143+121.962+30.8183C122.886+30.4223+123.684+29.8823+124.356+29.1983C125.028+28.5143+125.562+27.7163+125.958+26.8043C126.354+25.8923+126.552+24.9203+126.552+23.8883C126.552+22.8563+126.354+21.8783+125.958+20.9543C125.562+20.0303+125.028+19.2323+124.356+18.5603C123.684+17.8883+122.886+17.3543+121.962+16.9583C121.038+16.5623+120.06+16.3643+119.028+16.3643Z" fill-rule="evenodd" fill="#f70606" opacity="1"/>
<path d="M133.392+32.9243L131.52+32.9243L131.52+23.9243C131.52+22.6283+131.766+21.4043+132.258+20.2523C132.75+19.1003+133.422+18.0983+134.274+17.2463C135.126+16.3943+136.122+15.7222+137.262+15.2302C138.402+14.7382+139.62+14.4922+140.916+14.4922L140.916+16.4003C139.884+16.4003+138.912+16.5983+138+16.9943C137.088+17.3903+136.29+17.9243+135.606+18.5963C134.922+19.2683+134.382+20.0663+133.986+20.9903C133.59+21.9143+133.392+22.8923+133.392+23.9243L133.392+32.9243Z" fill-rule="evenodd" fill="#f70606" opacity="1"/>
<path d="M153.372+14.4922C154.668+14.4922+155.886+14.7382+157.026+15.2302C158.166+15.7222+159.162+16.3943+160.014+17.2463C160.866+18.0983+161.538+19.1003+162.03+20.2523C162.522+21.4043+162.768+22.6283+162.768+23.9243L162.768+32.9243L160.896+32.9243L160.896+23.9243C160.896+22.8923+160.698+21.9143+160.302+20.9903C159.906+20.0663+159.372+19.2683+158.7+18.5963C158.028+17.9243+157.23+17.3903+156.306+16.9943C155.382+16.5983+154.404+16.4003+153.372+16.4003C152.34+16.4003+151.368+16.5983+150.456+16.9943C149.544+17.3903+148.746+17.9243+148.062+18.5963C147.378+19.2683+146.838+20.0663+146.442+20.9903C146.046+21.9143+145.848+22.8923+145.848+23.9243L145.848+32.9243L143.976+32.9243L143.976+23.9243C143.976+22.6283+144.222+21.4043+144.714+20.2523C145.206+19.1003+145.878+18.0983+146.73+17.2463C147.582+16.3943+148.578+15.7222+149.718+15.2302C150.858+14.7382+152.076+14.4922+153.372+14.4922Z" fill-rule="evenodd" fill="#f70606" opacity="1"/>
<path d="M182.676+23.0603C182.556+22.1243+182.28+21.2603+181.848+20.4683C181.416+19.6763+180.87+18.9803+180.21+18.3803C179.55+17.7803+178.794+17.3123+177.942+16.9763C177.09+16.6403+176.184+16.4723+175.224+16.4723C174.264+16.4723+173.352+16.6403+172.488+16.9763C171.624+17.3123+170.862+17.7803+170.202+18.3803C169.542+18.9803+168.996+19.6763+168.564+20.4683C168.132+21.2603+167.856+22.1243+167.736+23.0603L182.676+23.0603ZM175.224+33.3923C173.928+33.3923+172.704+33.1463+171.552+32.6543C170.4+32.1623+169.398+31.4903+168.546+30.6383C167.694+29.7863+167.022+28.7903+166.53+27.6503C166.038+26.5103+165.792+25.2923+165.792+23.9963C165.792+22.7003+166.038+21.4763+166.53+20.3243C167.022+19.1723+167.694+18.1703+168.546+17.3183C169.398+16.4663+170.4+15.7942+171.552+15.3022C172.704+14.8102+173.928+14.5642+175.224+14.5642C176.52+14.5642+177.738+14.8102+178.878+15.3022C180.018+15.7942+181.014+16.4663+181.866+17.3183C182.718+18.1703+183.39+19.1723+183.882+20.3243C184.374+21.4763+184.62+22.7003+184.62+23.9963C184.62+24.1643+184.62+24.3203+184.62+24.4643C184.62+24.6083+184.608+24.7643+184.584+24.9323L184.152+24.9323L167.736+24.9323C167.856+25.8683+168.132+26.7323+168.564+27.5243C168.996+28.3163+169.542+29.0123+170.202+29.6123C170.862+30.2123+171.624+30.6803+172.488+31.0163C173.352+31.3523+174.264+31.5203+175.224+31.5203C175.92+31.5203+176.58+31.3883+177.204+31.1243C177.828+30.8603+178.38+30.4883+178.86+30.0083L180.192+31.3403C179.568+31.9643+178.83+32.4623+177.978+32.8343C177.126+33.2063+176.208+33.3923+175.224+33.3923Z" fill-rule="evenodd" fill="#f70606" opacity="1"/>
</g>
<g opacity="1">
<path d="M32.6559+23.6613C32.6559+24.9813+32.4039+26.2233+31.8999+27.3873C31.3959+28.5513+30.7119+29.5653+29.8479+30.4293C28.9839+31.2933+27.9699+31.9773+26.8059+32.4813C25.6419+32.9853+24.3999+33.2373+23.0799+33.2373C21.7359+33.2373+20.4819+32.9853+19.3179+32.4813C18.1539+31.9773+17.1399+31.2933+16.2759+30.4293C15.4119+29.5653+14.7279+28.5513+14.2239+27.3873C13.7199+26.2233+13.4679+24.9813+13.4679+23.6613L13.4679+6.66892L16.6359+6.66892L16.6359+23.6613C16.6359+24.5493+16.8039+25.3833+17.1399+26.1633C17.4759+26.9433+17.9379+27.6273+18.5259+28.2153C19.1139+28.8033+19.7979+29.2653+20.5779+29.6013C21.3579+29.9373+22.1919+30.1053+23.0799+30.1053C23.9679+30.1053+24.8019+29.9373+25.5819+29.6013C26.3619+29.2653+27.0459+28.8033+27.6339+28.2153C28.2219+27.6273+28.6839+26.9433+29.0199+26.1633C29.3559+25.3833+29.5239+24.5493+29.5239+23.6613L29.5239+6.66892L32.6559+6.66892L32.6559+23.6613Z" fill-rule="evenodd" fill="#ffffff" opacity="1"/>
<path d="M36.0399+6.59691L39.0999+6.59691L39.0999+28.2693C39.0999+28.8213+39.3579+29.2893+39.8739+29.6733C40.3899+30.0573+41.0079+30.2493+41.7279+30.2493L41.7279+33.3093C40.9359+33.3093+40.1979+33.1773+39.5139+32.9133C38.8299+32.6493+38.2299+32.2893+37.7139+31.8333C37.1979+31.3773+36.7899+30.8433+36.4899+30.2313C36.1899+29.6193+36.0399+28.9653+36.0399+28.2693L36.0399+6.59691Z" fill-rule="evenodd" fill="#ffffff" opacity="1"/>
<path d="M44.1039+10.6289L47.1999+10.6289L47.1999+15.0209L53.4999+15.0209L53.4999+18.0813L47.1999+18.0813L47.1999+28.1973C47.1999+28.7253+47.3859+29.1753+47.7579+29.5473C48.1299+29.9193+48.5919+30.1053+49.1439+30.1053C49.6959+30.1053+50.1579+29.8533+50.5299+29.3493C50.9019+28.8453+51.0879+28.2333+51.0879+27.5133L54.1479+27.5133C54.1479+28.3053+54.0159+29.0433+53.7519+29.7273C53.4879+30.4113+53.1339+31.0113+52.6899+31.5273C52.2459+32.0433+51.7179+32.4513+51.1059+32.7513C50.4939+33.0513+49.8399+33.2013+49.1439+33.2013C48.4479+33.2013+47.7939+33.0693+47.1819+32.8053C46.5699+32.5413+46.0359+32.1813+45.5799+31.7253C45.1239+31.2693+44.7639+30.7413+44.4999+30.1413C44.2359+29.5413+44.1039+28.8933+44.1039+28.1973L44.1039+10.6289Z" fill-rule="evenodd" fill="#ffffff" opacity="1"/>
<path d="M59.8359+32.9493L56.7399+32.9493L56.7399+23.9493C56.7399+22.6533+57.0039+21.4293+57.5319+20.2773C58.0599+19.1253+58.7799+18.1293+59.6919+17.2893C60.6039+16.4493+61.6659+15.7829+62.8779+15.2909C64.0899+14.7989+65.3919+14.5529+66.7839+14.5529L66.7839+17.6493C65.8239+17.6493+64.9239+17.8113+64.0839+18.1353C63.2439+18.4593+62.5059+18.9093+61.8699+19.4853C61.2339+20.0613+60.7359+20.7333+60.3759+21.5013C60.0159+22.2693+59.8359+23.0853+59.8359+23.9493L59.8359+32.9493Z" fill-rule="evenodd" fill="#ffffff" opacity="1"/>
<path d="M78.9519+14.5169C80.2479+14.5169+81.4719+14.7629+82.6239+15.2549C83.7759+15.7469+84.7779+16.4193+85.6299+17.2713C86.4819+18.1233+87.1539+19.1193+87.6459+20.2593C88.1379+21.3993+88.3839+22.6173+88.3839+23.9133L88.3839+32.9133L85.2519+32.9133L85.2519+30.8973C84.4119+31.6413+83.4579+32.2233+82.3899+32.6433C81.3219+33.0633+80.1759+33.2733+78.9519+33.2733C77.6559+33.2733+76.4439+33.0273+75.3159+32.5353C74.1879+32.0433+73.1979+31.3773+72.3459+30.5373C71.4939+29.6973+70.8219+28.7073+70.3299+27.5673C69.8379+26.4273+69.5919+25.2093+69.5919+23.9133C69.5919+22.6173+69.8379+21.3993+70.3299+20.2593C70.8219+19.1193+71.4939+18.1233+72.3459+17.2713C73.1979+16.4193+74.1879+15.7469+75.3159+15.2549C76.4439+14.7629+77.6559+14.5169+78.9519+14.5169ZM78.9519+17.6133C78.0879+17.6133+77.2719+17.7753+76.5039+18.0993C75.7359+18.4233+75.0699+18.8733+74.5059+19.4493C73.9419+20.0253+73.4919+20.6973+73.1559+21.4653C72.8199+22.2333+72.6519+23.0493+72.6519+23.9133C72.6519+24.7773+72.8199+25.5933+73.1559+26.3613C73.4919+27.1293+73.9419+27.7953+74.5059+28.3593C75.0699+28.9233+75.7359+29.3733+76.5039+29.7093C77.2719+30.0453+78.0879+30.2133+78.9519+30.2133C79.8399+30.2133+80.6679+30.0453+81.4359+29.7093C82.2039+29.3733+82.8699+28.9233+83.4339+28.3593C83.9979+27.7953+84.4419+27.1293+84.7659+26.3613C85.0899+25.5933+85.2519+24.7773+85.2519+23.9133C85.2519+23.0493+85.0899+22.2333+84.7659+21.4653C84.4419+20.6973+83.9979+20.0253+83.4339+19.4493C82.8699+18.8733+82.2039+18.4233+81.4359+18.0993C80.6679+17.7753+79.8399+17.6133+78.9519+17.6133Z" fill-rule="evenodd" fill="#ffffff" opacity="1"/>
</g>
<g opacity="1">
<path d="M92.9639+5.92421L94.8359+5.92421L94.8359+23.9243L103.836+14.9242L106.5+14.9242L97.4999+23.9243L106.5+32.9243L103.836+32.9243L94.8359+23.9243L94.8359+32.9243L92.9639+32.9243L92.9639+5.92421Z" fill-rule="evenodd" fill="#f70606" opacity="1"/>
<path d="M119.028+14.4562C120.324+14.4562+121.548+14.7022+122.7+15.1942C123.852+15.6862+124.854+16.3583+125.706+17.2103C126.558+18.0623+127.23+19.0643+127.722+20.2163C128.214+21.3683+128.46+22.5923+128.46+23.8883L128.46+32.8883L126.552+32.8883L126.552+29.5403C125.712+30.6923+124.638+31.6043+123.33+32.2763C122.022+32.9483+120.588+33.2843+119.028+33.2843C117.732+33.2843+116.514+33.0383+115.374+32.5463C114.234+32.0543+113.238+31.3823+112.386+30.5303C111.534+29.6783+110.862+28.6823+110.37+27.5423C109.878+26.4023+109.632+25.1843+109.632+23.8883C109.632+22.5923+109.878+21.3683+110.37+20.2163C110.862+19.0643+111.534+18.0623+112.386+17.2103C113.238+16.3583+114.234+15.6862+115.374+15.1942C116.514+14.7022+117.732+14.4562+119.028+14.4562ZM119.028+16.3643C117.996+16.3643+117.024+16.5623+116.112+16.9583C115.2+17.3543+114.402+17.8883+113.718+18.5603C113.034+19.2323+112.494+20.0303+112.098+20.9543C111.702+21.8783+111.504+22.8563+111.504+23.8883C111.504+24.9203+111.702+25.8923+112.098+26.8043C112.494+27.7163+113.034+28.5143+113.718+29.1983C114.402+29.8823+115.2+30.4223+116.112+30.8183C117.024+31.2143+117.996+31.4123+119.028+31.4123C120.06+31.4123+121.038+31.2143+121.962+30.8183C122.886+30.4223+123.684+29.8823+124.356+29.1983C125.028+28.5143+125.562+27.7163+125.958+26.8043C126.354+25.8923+126.552+24.9203+126.552+23.8883C126.552+22.8563+126.354+21.8783+125.958+20.9543C125.562+20.0303+125.028+19.2323+124.356+18.5603C123.684+17.8883+122.886+17.3543+121.962+16.9583C121.038+16.5623+120.06+16.3643+119.028+16.3643Z" fill-rule="evenodd" fill="#f70606" opacity="1"/>
<path d="M133.392+32.9243L131.52+32.9243L131.52+23.9243C131.52+22.6283+131.766+21.4043+132.258+20.2523C132.75+19.1003+133.422+18.0983+134.274+17.2463C135.126+16.3943+136.122+15.7222+137.262+15.2302C138.402+14.7382+139.62+14.4922+140.916+14.4922L140.916+16.4003C139.884+16.4003+138.912+16.5983+138+16.9943C137.088+17.3903+136.29+17.9243+135.606+18.5963C134.922+19.2683+134.382+20.0663+133.986+20.9903C133.59+21.9143+133.392+22.8923+133.392+23.9243L133.392+32.9243Z" fill-rule="evenodd" fill="#f70606" opacity="1"/>
<path d="M153.372+14.4922C154.668+14.4922+155.886+14.7382+157.026+15.2302C158.166+15.7222+159.162+16.3943+160.014+17.2463C160.866+18.0983+161.538+19.1003+162.03+20.2523C162.522+21.4043+162.768+22.6283+162.768+23.9243L162.768+32.9243L160.896+32.9243L160.896+23.9243C160.896+22.8923+160.698+21.9143+160.302+20.9903C159.906+20.0663+159.372+19.2683+158.7+18.5963C158.028+17.9243+157.23+17.3903+156.306+16.9943C155.382+16.5983+154.404+16.4003+153.372+16.4003C152.34+16.4003+151.368+16.5983+150.456+16.9943C149.544+17.3903+148.746+17.9243+148.062+18.5963C147.378+19.2683+146.838+20.0663+146.442+20.9903C146.046+21.9143+145.848+22.8923+145.848+23.9243L145.848+32.9243L143.976+32.9243L143.976+23.9243C143.976+22.6283+144.222+21.4043+144.714+20.2523C145.206+19.1003+145.878+18.0983+146.73+17.2463C147.582+16.3943+148.578+15.7222+149.718+15.2302C150.858+14.7382+152.076+14.4922+153.372+14.4922Z" fill-rule="evenodd" fill="#f70606" opacity="1"/>
<path d="M182.676+23.0603C182.556+22.1243+182.28+21.2603+181.848+20.4683C181.416+19.6763+180.87+18.9803+180.21+18.3803C179.55+17.7803+178.794+17.3123+177.942+16.9763C177.09+16.6403+176.184+16.4723+175.224+16.4723C174.264+16.4723+173.352+16.6403+172.488+16.9763C171.624+17.3123+170.862+17.7803+170.202+18.3803C169.542+18.9803+168.996+19.6763+168.564+20.4683C168.132+21.2603+167.856+22.1243+167.736+23.0603L182.676+23.0603ZM175.224+33.3923C173.928+33.3923+172.704+33.1463+171.552+32.6543C170.4+32.1623+169.398+31.4903+168.546+30.6383C167.694+29.7863+167.022+28.7903+166.53+27.6503C166.038+26.5103+165.792+25.2923+165.792+23.9963C165.792+22.7003+166.038+21.4763+166.53+20.3243C167.022+19.1723+167.694+18.1703+168.546+17.3183C169.398+16.4663+170.4+15.7942+171.552+15.3022C172.704+14.8102+173.928+14.5642+175.224+14.5642C176.52+14.5642+177.738+14.8102+178.878+15.3022C180.018+15.7942+181.014+16.4663+181.866+17.3183C182.718+18.1703+183.39+19.1723+183.882+20.3243C184.374+21.4763+184.62+22.7003+184.62+23.9963C184.62+24.1643+184.62+24.3203+184.62+24.4643C184.62+24.6083+184.608+24.7643+184.584+24.9323L184.152+24.9323L167.736+24.9323C167.856+25.8683+168.132+26.7323+168.564+27.5243C168.996+28.3163+169.542+29.0123+170.202+29.6123C170.862+30.2123+171.624+30.6803+172.488+31.0163C173.352+31.3523+174.264+31.5203+175.224+31.5203C175.92+31.5203+176.58+31.3883+177.204+31.1243C177.828+30.8603+178.38+30.4883+178.86+30.0083L180.192+31.3403C179.568+31.9643+178.83+32.4623+177.978+32.8343C177.126+33.2063+176.208+33.3923+175.224+33.3923Z" fill-rule="evenodd" fill="#f70606" opacity="1"/>
</g>
</g>
</svg>
